# xmcd CD database file
#
# Track frame offsets:
#	150
#	23262
#	38166
#	65238
#	84440
#	109029
#	139236
#	147963
#	164868
#	178420
#	195862
#	212497
#	224607
#	237291
#	257280
#	275205
#	290542
#
# Disc length: 4031 seconds
#
# Revision: 2
# Processed by: cddbd v1.4b41PL1 Copyright (c) Steve Scherf et al.
# Submitted via: Feurio! 1.50.2ß - http://www.feurio.com
#
DISCID=060fbd11
DTITLE=Nuovo interprete - UNCUT vol.1
DYEAR=1900
DGENRE=
TTITLE0=wgc
TTITLE1=lreed
TTITLE2=cassandra
TTITLE3=moby
TTITLE4=benfolds
TTITLE5=baby
TTITLE6=boxtops
TTITLE7=trex
TTITLE8=luscious
TTITLE9=thompson
TTITLE10=blondie
TTITLE11=dolly
TTITLE12=ramones
TTITLE13=theads
TTITLE14=stereolab
TTITLE15=shelby
TTITLE16=lowe
EXTD=
EXTT0=
EXTT1=
EXTT2=
EXTT3=
EXTT4=
EXTT5=
EXTT6=
EXTT7=
EXTT8=
EXTT9=
EXTT10=
EXTT11=
EXTT12=
EXTT13=
EXTT14=
EXTT15=
EXTT16=
PLAYORDER=
